<mxfile host="app.diagrams.net" modified="2020-10-09T23:54:55.956Z" agent="5.0 (Windows NT 10.0; Win64; x64) AppleWebKit/537.36 (KHTML, like Gecko) Chrome/85.0.4183.121 Safari/537.36 Edg/85.0.564.70" etag="WQGa371MDLzysFJb_gtf" version="13.7.9" type="github">
  <diagram name="Page-1" id="97916047-d0de-89f5-080d-49f4d83e522f">
    <mxGraphModel dx="2076" dy="1096" grid="1" gridSize="10" guides="1" tooltips="1" connect="1" arrows="1" fold="1" page="1" pageScale="1.5" pageWidth="1169" pageHeight="827" background="#ffffff" math="0" shadow="0">
      <root>
        <mxCell id="0" />
        <mxCell id="1" parent="0" />
        <mxCell id="3" value="UI" style="rounded=1;strokeColor=none;shadow=1;gradientColor=none;fontStyle=1;fontColor=#FFFFFF;fontSize=14;fillColor=#10739E;glass=1;sketch=0;" parent="1" vertex="1">
          <mxGeometry x="662" y="345.5" width="220" height="60" as="geometry" />
        </mxCell>
        <mxCell id="fSpwWbNm_VhH-N-8RSKB-63" style="edgeStyle=orthogonalEdgeStyle;rounded=0;orthogonalLoop=1;jettySize=auto;html=1;" edge="1" parent="1" source="4" target="fSpwWbNm_VhH-N-8RSKB-59">
          <mxGeometry relative="1" as="geometry">
            <Array as="points">
              <mxPoint x="402" y="780" />
              <mxPoint x="650" y="780" />
              <mxPoint x="650" y="1065" />
            </Array>
          </mxGeometry>
        </mxCell>
        <mxCell id="4" value="Application Front End" style="rounded=1;fillColor=#10739E;strokeColor=none;shadow=1;gradientColor=none;fontStyle=1;fontColor=#FFFFFF;fontSize=14;" parent="1" vertex="1">
          <mxGeometry x="302" y="455.5" width="200" height="60" as="geometry" />
        </mxCell>
        <mxCell id="5" value="ServiceÂ " style="rounded=1;fillColor=#10739E;strokeColor=none;shadow=1;gradientColor=none;fontStyle=1;fontColor=#FFFFFF;fontSize=14;" parent="1" vertex="1">
          <mxGeometry x="542" y="455.5" width="200" height="60" as="geometry" />
        </mxCell>
        <mxCell id="fSpwWbNm_VhH-N-8RSKB-62" style="edgeStyle=orthogonalEdgeStyle;rounded=0;orthogonalLoop=1;jettySize=auto;html=1;entryX=1;entryY=0.5;entryDx=0;entryDy=0;" edge="1" parent="1" source="6" target="fSpwWbNm_VhH-N-8RSKB-59">
          <mxGeometry relative="1" as="geometry">
            <mxPoint x="1090" y="1070" as="targetPoint" />
          </mxGeometry>
        </mxCell>
        <mxCell id="6" value="Service Repository (JSON Website)" style="rounded=1;fillColor=#10739E;strokeColor=none;shadow=1;gradientColor=none;fontStyle=1;fontColor=#FFFFFF;fontSize=14;whiteSpace=wrap;" parent="1" vertex="1">
          <mxGeometry x="960" y="470" width="218" height="70" as="geometry" />
        </mxCell>
        <mxCell id="7" value="Service Bus" style="rounded=1;fillColor=#10739E;strokeColor=none;shadow=1;gradientColor=none;fontStyle=1;fontColor=#FFFFFF;fontSize=14;" parent="1" vertex="1">
          <mxGeometry x="1272" y="455.5" width="200" height="60" as="geometry" />
        </mxCell>
        <mxCell id="fSpwWbNm_VhH-N-8RSKB-60" value="" style="edgeStyle=orthogonalEdgeStyle;rounded=0;orthogonalLoop=1;jettySize=auto;html=1;exitX=0.5;exitY=1;exitDx=0;exitDy=0;" edge="1" parent="1" source="25" target="fSpwWbNm_VhH-N-8RSKB-59">
          <mxGeometry relative="1" as="geometry" />
        </mxCell>
        <mxCell id="13" value="Inerface&#xa;" style="rounded=1;fillColor=#10739E;strokeColor=none;shadow=1;gradientColor=none;fontStyle=1;fontColor=#FFFFFF;fontSize=14;" parent="1" vertex="1">
          <mxGeometry x="552" y="615.5" width="200" height="60" as="geometry" />
        </mxCell>
        <mxCell id="23" value="Implementaiton" style="rounded=1;fillColor=#10739E;strokeColor=none;shadow=1;gradientColor=none;fontStyle=1;fontColor=#FFFFFF;fontSize=14;" parent="1" vertex="1">
          <mxGeometry x="850" y="615.5" width="200" height="60" as="geometry" />
        </mxCell>
        <mxCell id="24" value="Business Logic" style="rounded=1;fillColor=#10739E;strokeColor=none;shadow=1;gradientColor=none;fontStyle=1;fontColor=#FFFFFF;fontSize=14;" parent="1" vertex="1">
          <mxGeometry x="850" y="705.5" width="200" height="60" as="geometry" />
        </mxCell>
        <mxCell id="25" value="Data" style="rounded=1;fillColor=#10739E;strokeColor=none;shadow=1;gradientColor=none;fontStyle=1;fontColor=#FFFFFF;fontSize=14;" parent="1" vertex="1">
          <mxGeometry x="850" y="795.5" width="200" height="60" as="geometry" />
        </mxCell>
        <mxCell id="30" value="" style="edgeStyle=elbowEdgeStyle;elbow=vertical;strokeWidth=4;endArrow=block;endFill=1;fontStyle=1;strokeColor=#23445D;" parent="1" source="3" target="5" edge="1">
          <mxGeometry x="22" y="165.5" width="100" height="100" as="geometry">
            <mxPoint x="22" y="265.5" as="sourcePoint" />
            <mxPoint x="122" y="165.5" as="targetPoint" />
          </mxGeometry>
        </mxCell>
        <mxCell id="31" value="" style="edgeStyle=elbowEdgeStyle;elbow=vertical;strokeWidth=4;endArrow=block;endFill=1;fontStyle=1;strokeColor=#23445D;" parent="1" source="3" target="4" edge="1">
          <mxGeometry x="22" y="165.5" width="100" height="100" as="geometry">
            <mxPoint x="22" y="265.5" as="sourcePoint" />
            <mxPoint x="122" y="165.5" as="targetPoint" />
          </mxGeometry>
        </mxCell>
        <mxCell id="32" value="" style="edgeStyle=elbowEdgeStyle;elbow=vertical;strokeWidth=4;endArrow=block;endFill=1;fontStyle=1;strokeColor=#23445D;" parent="1" source="3" target="6" edge="1">
          <mxGeometry x="22" y="165.5" width="100" height="100" as="geometry">
            <mxPoint x="22" y="265.5" as="sourcePoint" />
            <mxPoint x="122" y="165.5" as="targetPoint" />
          </mxGeometry>
        </mxCell>
        <mxCell id="37" value="" style="edgeStyle=elbowEdgeStyle;elbow=vertical;strokeWidth=4;endArrow=block;endFill=1;fontStyle=1;strokeColor=#23445D;" parent="1" target="23" edge="1">
          <mxGeometry x="22" y="165.5" width="100" height="100" as="geometry">
            <mxPoint x="650" y="520" as="sourcePoint" />
            <mxPoint x="122" y="165.5" as="targetPoint" />
            <Array as="points">
              <mxPoint x="972" y="555.5" />
            </Array>
          </mxGeometry>
        </mxCell>
        <mxCell id="50" value="" style="edgeStyle=elbowEdgeStyle;elbow=vertical;strokeWidth=4;endArrow=block;endFill=1;fontStyle=1;strokeColor=#23445D;" parent="1" source="23" target="24" edge="1">
          <mxGeometry x="72" y="165.5" width="100" height="100" as="geometry">
            <mxPoint x="72" y="265.5" as="sourcePoint" />
            <mxPoint x="172" y="165.5" as="targetPoint" />
          </mxGeometry>
        </mxCell>
        <mxCell id="51" value="" style="edgeStyle=elbowEdgeStyle;elbow=vertical;strokeWidth=4;endArrow=block;endFill=1;fontStyle=1;strokeColor=#23445D;" parent="1" source="24" target="25" edge="1">
          <mxGeometry x="72" y="175.5" width="100" height="100" as="geometry">
            <mxPoint x="72" y="275.5" as="sourcePoint" />
            <mxPoint x="172" y="175.5" as="targetPoint" />
          </mxGeometry>
        </mxCell>
        <mxCell id="54" value="" style="edgeStyle=elbowEdgeStyle;elbow=vertical;strokeWidth=4;endArrow=block;endFill=1;fontStyle=1;strokeColor=#23445D;exitX=0.25;exitY=1;exitDx=0;exitDy=0;entryX=0.5;entryY=0;entryDx=0;entryDy=0;" parent="1" source="5" target="13" edge="1">
          <mxGeometry x="22" y="165.5" width="100" height="100" as="geometry">
            <mxPoint x="22" y="265.5" as="sourcePoint" />
            <mxPoint x="590" y="616" as="targetPoint" />
            <Array as="points">
              <mxPoint x="640" y="590" />
            </Array>
          </mxGeometry>
        </mxCell>
        <mxCell id="fSpwWbNm_VhH-N-8RSKB-58" value="" style="edgeStyle=elbowEdgeStyle;elbow=vertical;strokeWidth=4;endArrow=block;endFill=1;fontStyle=1;strokeColor=#23445D;entryX=0.49;entryY=0.075;entryDx=0;entryDy=0;entryPerimeter=0;" edge="1" parent="1" target="7">
          <mxGeometry x="70" y="165.5" width="100" height="100" as="geometry">
            <mxPoint x="820" y="405.5" as="sourcePoint" />
            <mxPoint x="1370" y="440" as="targetPoint" />
            <Array as="points">
              <mxPoint x="1090" y="440" />
            </Array>
          </mxGeometry>
        </mxCell>
        <mxCell id="fSpwWbNm_VhH-N-8RSKB-59" value="&lt;font style=&quot;font-size: 20px&quot;&gt;&lt;font style=&quot;font-size: 20px&quot;&gt;&amp;nbsp; &amp;nbsp; &amp;nbsp; &amp;nbsp; &amp;nbsp; &amp;nbsp;SQL DAT&lt;/font&gt;ABASE&lt;/font&gt;" style="ellipse;whiteSpace=wrap;html=1;rounded=1;shadow=1;fontSize=14;fontColor=#FFFFFF;fontStyle=1;strokeColor=none;fillColor=#10739E;" vertex="1" parent="1">
          <mxGeometry x="682" y="1000" width="390" height="130" as="geometry" />
        </mxCell>
        <mxCell id="fSpwWbNm_VhH-N-8RSKB-61" value="" style="shape=cylinder3;whiteSpace=wrap;html=1;boundedLbl=1;backgroundOutline=1;size=15;rounded=1;shadow=1;glass=1;sketch=0;fillColor=#CCCCCC;" vertex="1" parent="1">
          <mxGeometry x="760" y="1020" width="60" height="80" as="geometry" />
        </mxCell>
      </root>
    </mxGraphModel>
  </diagram>
</mxfile>
